<?xml version="1.0" encoding="UTF-8" standalone="no"?>
<!-- Created with Inkscape (http://www.inkscape.org/) -->

<svg
   xmlns:dc="http://purl.org/dc/elements/1.1/"
   xmlns:cc="http://creativecommons.org/ns#"
   xmlns:rdf="http://www.w3.org/1999/02/22-rdf-syntax-ns#"
   xmlns:svg="http://www.w3.org/2000/svg"
   xmlns="http://www.w3.org/2000/svg"
   xmlns:sodipodi="http://sodipodi.sourceforge.net/DTD/sodipodi-0.dtd"
   xmlns:inkscape="http://www.inkscape.org/namespaces/inkscape"
   width="210mm"
   height="297mm"
   viewBox="0 0 744.09448819 1052.3622047"
   id="svg2"
   version="1.1"
   inkscape:version="0.91 r13725"
   sodipodi:docname="player.svg"
   inkscape:export-filename="E:\Unity Things\TOJam2021\Assets\Sprites\Player\player-base-right.png"
   inkscape:export-xdpi="90"
   inkscape:export-ydpi="90">
  <defs
     id="defs4" />
  <sodipodi:namedview
     id="base"
     pagecolor="#ffffff"
     bordercolor="#666666"
     borderopacity="1.0"
     inkscape:pageopacity="0.0"
     inkscape:pageshadow="2"
     inkscape:zoom="2.8"
     inkscape:cx="358.70285"
     inkscape:cy="556.7978"
     inkscape:document-units="px"
     inkscape:current-layer="layer1"
     showgrid="false"
     inkscape:window-width="2560"
     inkscape:window-height="1057"
     inkscape:window-x="-8"
     inkscape:window-y="363"
     inkscape:window-maximized="1" />
  <metadata
     id="metadata7">
    <rdf:RDF>
      <cc:Work
         rdf:about="">
        <dc:format>image/svg+xml</dc:format>
        <dc:type
           rdf:resource="http://purl.org/dc/dcmitype/StillImage" />
        <dc:title />
      </cc:Work>
    </rdf:RDF>
  </metadata>
  <g
     inkscape:label="player main shape"
     inkscape:groupmode="layer"
     id="layer1">
    <circle
       style="color:#000000;clip-rule:nonzero;display:inline;overflow:visible;visibility:visible;opacity:1;isolation:auto;mix-blend-mode:normal;color-interpolation:sRGB;color-interpolation-filters:linearRGB;solid-color:#000000;solid-opacity:1;fill:#000000;fill-opacity:1;fill-rule:evenodd;stroke:#000000;stroke-width:0.30000001;stroke-linecap:butt;stroke-linejoin:miter;stroke-miterlimit:4;stroke-dasharray:none;stroke-dashoffset:0;stroke-opacity:1;color-rendering:auto;image-rendering:auto;shape-rendering:auto;text-rendering:auto;enable-background:accumulate"
       id="path4136"
       cx="360.71429"
       cy="510.21936"
       r="102.14286"
       inkscape:export-xdpi="90"
       inkscape:export-ydpi="90" />
    <path
       style="fill:#de87aa;fill-opacity:1;fill-rule:evenodd;stroke:none;stroke-width:1px;stroke-linecap:butt;stroke-linejoin:miter;stroke-opacity:1"
       d="m 261.08506,518.83775 c 0,0 0.37192,-55.82303 30.12497,-77.92745 29.75306,-22.10442 47.91336,-29.64079 56.90274,-29.97209 30.49688,-1.12395 52.03831,3.56445 69.89015,19.29979 8.92593,7.86768 25.69492,16.9582 32.71361,37.73345 14.20485,42.04619 6.9603,66.53333 -4.19709,88.45042 -22.31479,43.83419 -66.81488,54.17296 -85.0178,53.08148 -31.24071,-1.87327 -78.4737,-27.7242 -88.51536,-50.20326 -15.40859,-34.49337 -11.90122,-40.46234 -11.90122,-40.46234 z"
       id="path4148"
       inkscape:connector-curvature="0"
       sodipodi:nodetypes="csssssssc" />
  </g>
  <g
     inkscape:groupmode="layer"
     id="layer2"
     inkscape:label="on player">
    <path
       style="fill:#000000;fill-rule:evenodd;stroke:#000000;stroke-width:0.94773793px;stroke-linecap:butt;stroke-linejoin:miter;stroke-opacity:1"
       d="m 425.66806,508.57217 c -4.75044,-3.93425 -95.90457,-64.12857 -101.96549,-65.89634 0,0 -1.52973,123.1874 0.74312,127.48055 7.57614,1.26269 95.37668,-57.46403 101.22237,-61.58421 z"
       id="path4147"
       inkscape:connector-curvature="0"
       inkscape:export-xdpi="90"
       inkscape:export-ydpi="90"
       sodipodi:nodetypes="cccc" />
    <path
       inkscape:connector-curvature="0"
       id="path4151"
       d="m 421.86975,508.53922 c 0.25254,-1.76777 -4.03617,-4.26272 -4.03617,-4.26272 l -85.10091,-53.25512 c 0,0 -3.02158,-2.21198 -5.7995,-1.95944 -1.76777,1.26269 -1.53898,5.29051 -1.53898,5.29051 l 0.1144,105.68081 c 0,0 0.11439,5.42317 1.37708,6.18079 2.77792,2.0203 6.82597,-1.66553 6.82597,-1.66553 l 83.85009,-52.17316 c 0,0 3.5504,-2.06837 4.30802,-3.83614 z"
       style="fill:#87cdde;fill-rule:evenodd;stroke:#5fbcd3;stroke-width:0.88398534px;stroke-linecap:butt;stroke-linejoin:miter;stroke-opacity:1"
       inkscape:export-xdpi="90"
       inkscape:export-ydpi="90"
       sodipodi:nodetypes="cccccccccc" />
  </g>
</svg>
